<?xml version="1.0" standalone="no"?>
<!DOCTYPE svg PUBLIC "-//W3C//DTD SVG 20010904//EN"
 "http://www.w3.org/TR/2001/REC-SVG-20010904/DTD/svg10.dtd">
<svg version="1.0" xmlns="http://www.w3.org/2000/svg"
 width="200.000000pt" height="200.000000pt" viewBox="0 0 200.000000 200.000000"
 preserveAspectRatio="xMidYMid meet">
<metadata>
Created by potrace 1.11, written by Peter Selinger 2001-2013
</metadata>
<g transform="translate(0.000000,200.000000) scale(0.100000,-0.100000)"
fill="#000000" stroke="none">
<path d="M1100 1440 c-23 -23 -26 -51 -8 -80 14 -21 5 -42 -117 -270 -31 -58
-108 -204 -172 -325 -144 -272 -179 -339 -285 -540 -116 -218 -120 -225 -111
-225 8 0 50 76 456 845 200 379 258 481 274 483 14 2 23 -3 27 -15 3 -10 42
-137 86 -283 231 -752 225 -728 207 -748 -10 -10 -17 -32 -17 -49 0 -19 -6
-33 -16 -37 -36 -14 -314 -191 -304 -194 5 -2 79 40 164 92 84 53 159 96 165
96 22 0 22 -28 1 -100 -12 -39 -19 -77 -17 -83 2 -7 14 22 26 63 32 109 32
108 41 85 4 -11 11 -50 14 -87 4 -38 12 -68 17 -68 6 0 8 8 5 18 -3 9 -8 49
-12 88 -5 62 -4 72 11 78 12 4 27 -1 44 -17 53 -48 211 -167 222 -167 6 0 -46
46 -116 102 -71 56 -124 103 -119 105 6 2 104 -21 219 -52 178 -46 235 -58
214 -42 -2 2 -96 27 -209 57 -193 50 -231 63 -219 75 3 2 99 30 214 60 115 31
211 58 214 60 14 15 -24 7 -219 -45 -212 -57 -215 -58 -236 -39 -11 10 -28 19
-36 19 -19 0 -21 5 -193 570 -69 228 -130 427 -135 443 -7 20 -6 27 4 27 7 0
192 -164 411 -365 219 -201 401 -362 404 -359 3 3 -12 22 -34 42 -22 20 -191
174 -375 343 -184 168 -348 318 -365 332 -62 53 -63 53 518 -67 141 -30 257
-50 257 -46 0 4 -24 12 -52 18 -29 6 -206 43 -392 81 -187 39 -341 71 -343 71
-2 0 -3 7 -3 15 0 23 -37 55 -65 55 -14 0 -34 -9 -45 -20z"/>
</g>
</svg>
